<?xml version="1.0" encoding="UTF-8"?>
<!DOCTYPE svg PUBLIC "-//W3C//DTD SVG 1.1//EN" "http://www.w3.org/Graphics/SVG/1.1/DTD/svg11.dtd">
<!-- Creator: CorelDRAW 2021 (64-Bit) -->
<svg xmlns="http://www.w3.org/2000/svg" xml:space="preserve" width="70.167mm" height="25.5896mm" version="1.1" style="shape-rendering:geometricPrecision; text-rendering:geometricPrecision; image-rendering:optimizeQuality; fill-rule:evenodd; clip-rule:evenodd"
viewBox="0 0 1892.06 690.02"
 xmlns:xlink="http://www.w3.org/1999/xlink"
 xmlns:xodm="http://www.corel.com/coreldraw/odm/2003">
 <defs>
  <style type="text/css">
   <![CDATA[
    .fil0 {fill:url(#id0);fill-rule:nonzero}
   ]]>
  </style>
  <linearGradient id="id0" gradientUnits="userSpaceOnUse" x1="-0" y1="345.01" x2="1892.06" y2="345.01">
   <stop offset="0" style="stop-opacity:1; stop-color:#449CEE"/>
   <stop offset="0.768627" style="stop-opacity:1; stop-color:#2380D6"/>
   <stop offset="1" style="stop-opacity:1; stop-color:#0263BD"/>
  </linearGradient>
 </defs>
 <g id="Layer_x0020_1">
  <metadata id="CorelCorpID_0Corel-Layer"/>
  <path class="fil0" d="M981.87 688.74c-52.63,0.82 -101.27,-6.82 -145.92,-22.93 -44.65,-16.11 -83.38,-39.29 -116.2,-69.55 -32.82,-30.25 -60.51,-65.65 -77.75,-105.46 -2.39,-5.34 -4.5,-10.91 -6.59,-16.44 -14.35,-37.91 -21.56,-80.56 -22.24,-124.27 -0.78,-50.1 7.54,-96.37 24.95,-138.82 17.41,-42.45 42.21,-79.3 74.39,-110.57 32.17,-31.26 70.48,-55.64 114.93,-73.14 44.44,-17.5 93.29,-26.67 146.56,-27.5 58.97,-0.92 112.39,8.08 160.25,26.99 47.86,18.92 88.26,46.83 121.18,83.74l-99.37 94.78c-24.49,-24.99 -50.94,-43.45 -79.35,-55.37 -28.41,-11.92 -59.42,-17.62 -93.03,-17.1 -31.7,0.49 -60.64,6.02 -86.79,16.57 -26.16,10.56 -48.6,25.34 -67.33,44.34 -18.73,19 -33.13,41.43 -43.19,67.27 -10.06,25.84 -14.85,54.62 -14.35,86.33 0.47,30.44 6.15,58.57 17.01,84.41 10.87,25.84 25.96,48.12 45.28,66.84 19.32,18.73 41.9,32.96 67.74,42.71 25.84,9.75 54.61,14.37 86.32,13.88 30.44,-0.47 59.85,-5.85 88.23,-16.12l26.01 -11.43c4.81,-2.11 4.23,-1.84 4.16,-6.6l-2.1 -135.06c-0.17,-10.75 1.02,-13.52 3.04,-15.15 1.71,-1.38 3.41,-2.34 12.27,-2.47l110.33 -1.72c10.13,-0.16 12.45,0.25 14.08,2.15 1.25,1.46 2.77,3.14 2.89,10.38l3.34 214.27c0.05,3.45 -0.36,4.22 -0.79,5.25 -0.45,1.09 -1,2.42 -3.91,4.62 -35.22,26.66 -75.63,47.18 -121.19,61.54 -47.66,15.01 -95.26,22.89 -142.81,23.63zm-478.78 -508.48l96.85 -99.91c-24.98,-21.83 -53.63,-39.27 -85.93,-52.34 -47.56,-19.24 -100.18,-28.41 -157.88,-27.51 -52,0.81 -99.9,9.96 -143.71,27.45 -43.81,17.49 -81.64,41.87 -113.5,73.12 -31.86,31.26 -56.5,68.11 -73.91,110.56 -17.42,42.45 -25.74,88.72 -24.95,138.82 0.78,50.09 10.54,96.08 29.27,137.97 18.73,41.89 44.5,77.95 77.32,108.2 32.82,30.25 71.4,53.43 115.73,69.55 44.33,16.12 92.18,23.78 143.54,22.97 58.34,-0.91 110.97,-11.88 157.89,-32.91 46.92,-21.02 85.62,-51.12 116.09,-90.29l-102.18 -89.63c-21.79,26.34 -46.62,44.38 -74.32,58.14 -27.69,13.75 -58.03,20.88 -91,21.39 -31.07,0.49 -59.37,-4.15 -84.89,-13.9 -25.52,-9.75 -47.78,-23.83 -66.78,-42.25 -19,-18.41 -33.93,-40.54 -44.8,-66.37 -10.87,-25.84 -16.55,-54.29 -17.03,-85.36 -0.49,-31.07 4.3,-59.69 14.36,-85.85 10.06,-26.16 24.3,-48.74 42.71,-67.74 18.41,-19 40.22,-33.77 65.43,-44.31 25.2,-10.54 53.34,-16.05 84.41,-16.54 32.97,-0.51 63.51,5.67 91.62,18.55 16.13,7.39 31.35,16.78 45.67,28.17zm34.54 296.12l102.25 89.57c9.45,-10.16 18.3,-19.72 27.76,-29.89 -29.43,-40.81 -44.49,-90.24 -51.61,-144.04l-78.4 84.36zm712.56 -371.3l274.23 319.72 0 0 1.8 2.68 34.1 57.02 -67.77 0.01 35.59 -60.01 231.86 -394.98c2.74,-3.28 6.6,-5.08 10.54,-5.37l97.79 0.22c16.67,-0.13 20.72,3.63 21.66,19.23l2.05 646.42 -144.59 0 -0.95 -444.24 26.64 0 -212.71 361.25c-0.45,1.21 -2.68,2.82 -5.08,2.93l-63.39 0c-1.72,-0.42 -1.21,-1.84 -2.42,-3.16l-337.81 -405.54 98.45 -96.18z"/>
 </g>
</svg>
