<svg xmlns="http://www.w3.org/2000/svg"  viewBox="0 0 50 50" width="50px" height="50px"><path d="M 13 4 C 8.038 4 4 8.037 4 13 L 4 37 C 4 41.963 8.038 46 13 46 L 37 46 C 41.962 46 46 41.963 46 37 L 46 13 C 46 8.037 41.962 4 37 4 L 13 4 z M 38.001953 16.839844 C 38.781953 16.842844 39.549187 17.029719 40.242188 17.386719 L 40.242188 18.912109 L 39.607422 18.912109 L 39.527344 18.613281 C 39.341344 17.925281 38.865687 17.634766 38.054688 17.634766 C 37.243688 17.634766 36.828125 17.959469 36.828125 18.480469 C 36.828125 18.912469 37.100906 19.168359 37.753906 19.318359 L 38.875 19.574219 C 39.986 19.830219 40.577125 20.500656 40.578125 21.472656 C 40.578125 22.628656 39.607 23.369141 38.125 23.369141 C 37.223 23.394141 36.328484 23.198875 35.521484 22.796875 L 35.521484 21.066406 L 36.15625 21.066406 L 36.271484 21.445312 C 36.492484 22.186312 36.995609 22.574219 37.974609 22.574219 C 38.839609 22.574219 39.271484 22.257594 39.271484 21.683594 C 39.271484 21.215594 39.007969 20.934391 38.292969 20.775391 L 37.171875 20.527344 C 36.086875 20.289344 35.521484 19.628516 35.521484 18.728516 C 35.521484 17.563516 36.492953 16.839844 38.001953 16.839844 z M 9.1601562 17.015625 L 12.037109 17.015625 L 12.037109 17.783203 L 11.207031 17.783203 L 12.240234 21.507812 L 13.474609 17.015625 L 14.744141 17.015625 L 16.007812 21.515625 L 17.021484 17.783203 L 16.15625 17.783203 L 16.15625 17.015625 L 23.638672 17.015625 L 23.638672 19.019531 L 23.003906 19.019531 L 22.941406 18.78125 C 22.747406 18.04025 22.544125 17.783203 21.953125 17.783203 L 20.488281 17.783203 L 20.488281 19.646484 L 22.261719 19.646484 C 22.328719 19.777484 22.363375 19.922312 22.359375 20.070312 C 22.364375 20.223312 22.329719 20.374719 22.261719 20.511719 L 20.488281 20.511719 L 20.488281 22.425781 L 22.013672 22.425781 C 22.587672 22.425781 22.842531 22.179531 23.019531 21.394531 L 23.091797 21.083984 L 23.726562 21.083984 L 23.726562 23.193359 L 18.423828 23.193359 L 18.423828 22.425781 L 19.173828 22.425781 L 19.173828 17.783203 L 17.957031 17.783203 L 16.412109 23.193359 L 15.1875 23.193359 L 13.933594 18.710938 L 12.646484 23.193359 L 11.419922 23.193359 L 9.8671875 17.783203 L 9.1601562 17.783203 L 9.1601562 17.015625 z M 24.369141 17.015625 L 27.273438 17.015625 L 27.273438 17.783203 L 26.435547 17.783203 L 26.435547 22.423828 L 27.660156 22.423828 C 28.242156 22.423828 28.490969 22.177578 28.667969 21.392578 L 28.738281 21.082031 L 29.373047 21.082031 L 29.373047 23.191406 L 24.369141 23.191406 L 24.369141 22.423828 L 25.119141 22.423828 L 25.119141 17.783203 L 24.369141 17.783203 L 24.369141 17.015625 z M 29.927734 17.015625 L 32.830078 17.015625 L 32.830078 17.783203 L 31.992188 17.783203 L 31.992188 22.423828 L 33.21875 22.423828 C 33.80075 22.423828 34.048609 22.177578 34.224609 21.392578 L 34.296875 21.082031 L 34.931641 21.082031 L 34.931641 23.191406 L 29.927734 23.191406 L 29.927734 22.423828 L 30.677734 22.423828 L 30.677734 17.783203 L 29.927734 17.783203 L 29.927734 17.015625 z M 30.566406 26.482422 C 31.377406 26.478422 32.178297 26.665297 32.904297 27.029297 L 32.904297 28.609375 L 32.269531 28.609375 L 32.173828 28.361328 C 31.969828 27.688328 31.331906 27.241344 30.628906 27.277344 C 29.428906 27.277344 28.767578 28.185859 28.767578 29.755859 C 28.767578 31.325859 29.429219 32.234375 30.699219 32.234375 C 31.056219 32.236375 31.410234 32.16725 31.740234 32.03125 L 31.740234 30.470703 L 30.689453 30.470703 C 30.620453 30.337703 30.58775 30.187109 30.59375 30.037109 C 30.58975 29.893109 30.621453 29.750047 30.689453 29.623047 L 33.037109 29.623047 L 33.037109 32.376953 C 32.276109 32.783953 31.429406 33.006297 30.566406 33.029297 C 28.590406 33.029297 27.320312 31.759625 27.320312 29.765625 C 27.320312 27.780625 28.625406 26.482422 30.566406 26.482422 z M 37.132812 26.484375 C 38.941812 26.484375 40.409063 27.946859 40.414062 29.755859 C 40.408063 31.564859 38.941813 33.027344 37.132812 33.027344 C 35.323813 33.027344 33.856563 31.564859 33.851562 29.755859 C 33.857563 27.946859 35.323813 26.484375 37.132812 26.484375 z M 9.9550781 26.675781 L 15.275391 26.675781 L 15.275391 28.679688 L 14.640625 28.679688 L 14.578125 28.441406 C 14.384125 27.700406 14.180844 27.443359 13.589844 27.443359 L 12.019531 27.443359 L 12.019531 29.419922 L 13.837891 29.419922 C 13.904891 29.550922 13.939547 29.69675 13.935547 29.84375 C 13.940547 29.99675 13.905891 30.148156 13.837891 30.285156 L 12.019531 30.285156 L 12.019531 32.085938 L 12.902344 32.085938 L 12.902344 32.853516 L 9.9550781 32.853516 L 9.9550781 32.085938 L 10.705078 32.085938 L 10.705078 27.443359 L 9.9550781 27.443359 L 9.9550781 26.675781 z M 17.181641 26.677734 L 18.353516 26.677734 L 20.560547 32.085938 L 21.777344 32.085938 L 21.777344 27.445312 L 21.027344 27.445312 L 21.027344 26.677734 L 24.574219 26.677734 C 25.836219 26.677734 26.65625 27.302594 26.65625 28.308594 C 26.65625 29.305594 25.835016 29.835094 25.041016 29.871094 L 25.041016 29.896484 C 25.844016 29.958484 26.17 30.408469 26.25 31.105469 L 26.285156 31.431641 C 26.338156 31.943641 26.443609 32.173828 26.849609 32.173828 C 26.912609 32.173828 26.974156 32.16725 27.035156 32.15625 C 27.141156 32.38625 27.141156 32.650859 27.035156 32.880859 C 26.807156 32.910859 26.577656 32.923828 26.347656 32.923828 C 25.491656 32.923828 25.077469 32.571953 24.980469 31.751953 L 24.945312 31.441406 C 24.839312 30.550406 24.547172 30.207031 23.576172 30.207031 L 23.091797 30.207031 L 23.091797 32.085938 L 23.929688 32.085938 L 23.929688 32.853516 L 18.380859 32.853516 L 18.380859 32.085938 L 19.103516 32.085938 L 18.697266 30.982422 L 16.404297 30.982422 L 15.998047 32.085938 L 16.738281 32.085938 L 16.738281 32.853516 L 14.400391 32.853516 L 14.400391 32.085938 L 15.019531 32.085938 L 17.181641 26.677734 z M 37.132812 27.285156 C 35.941812 27.285156 35.298828 28.194859 35.298828 29.755859 C 35.298828 31.325859 35.932813 32.226562 37.132812 32.226562 C 38.332813 32.226562 38.96875 31.325859 38.96875 29.755859 C 38.96875 28.193859 38.323813 27.285156 37.132812 27.285156 z M 23.091797 27.443359 L 23.091797 29.429688 L 24.132812 29.429688 C 24.917813 29.429688 25.324219 29.067641 25.324219 28.431641 C 25.324219 27.787641 24.926812 27.443359 24.132812 27.443359 L 23.091797 27.443359 z M 17.550781 27.894531 L 16.685547 30.232422 L 18.416016 30.232422 L 17.550781 27.894531 z"/></svg>